<?xml version="1.0" encoding="UTF-8"?>

<!-- Creator: CorelDRAW -->
<svg xmlns="http://www.w3.org/2000/svg" xml:space="preserve" width="200px" height="20px" version="1.1" style="shape-rendering:geometricPrecision; text-rendering:geometricPrecision; image-rendering:optimizeQuality; fill-rule:evenodd; clip-rule:evenodd"
viewBox="0 0 343.324 43.176"
 xmlns:xlink="http://www.w3.org/1999/xlink"
 xmlns:xodm="http://www.corel.com/coreldraw/odm/2003">
 <defs>
  <style type="text/css">
   <![CDATA[
    .str0 {stroke:#FFAE01;stroke-width:0.621;stroke-miterlimit:22.9256}
    .fil0 {fill:#000000}
    .fil1 {fill:#FFAE01}
   ]]>
  </style>
 </defs>
 <g id="Capa_x0020_1">
  <metadata id="CorelCorpID_0Corel-Layer"/>
  <path class="fil0" d="M306.03 35.945l0.153 -28.724c0.013,-2.062 0.564,-3.63 1.659,-4.725 1.097,-1.085 2.671,-1.628 4.733,-1.628l12.517 0c5.031,0 9.102,1.135 12.212,3.403 3.111,2.279 5.015,5.396 5.694,9.371 0.513,2.999 0.42,5.692 -0.27,8.059 -0.701,2.368 -1.889,4.301 -3.57,5.781 -1.681,1.479 -3.726,2.614 -6.139,3.383 -2.414,0.77 -5.11,1.154 -8.099,1.154l-6.648 0 -0.02 3.926c-0.013,2.062 -0.542,3.64 -1.592,4.715 -1.046,1.095 -2.559,1.648 -4.542,1.648 -1.992,0 -3.423,-0.464 -4.311,-1.391 -0.897,-0.917 -1.447,-2.003 -1.658,-3.236 -0.091,-0.532 -0.131,-1.114 -0.119,-1.736zm12.294 -14.125l6.649 0c2.101,0 3.665,-0.602 4.704,-1.796 1.039,-1.193 1.382,-2.821 1.03,-4.882 -0.463,-2.713 -2.353,-4.074 -5.667,-4.074l-6.649 0 -0.067 10.752z"/>
  <path class="fil0" d="M265.112 35.945l0.153 -28.724c0.013,-2.062 0.564,-3.63 1.659,-4.725 1.097,-1.085 2.671,-1.628 4.733,-1.628l12.517 0c5.031,0 9.102,1.135 12.212,3.403 3.111,2.279 5.015,5.396 5.694,9.371 0.513,2.999 0.42,5.692 -0.27,8.059 -0.701,2.368 -1.89,4.301 -3.57,5.781 -1.681,1.479 -3.726,2.614 -6.139,3.383 -2.414,0.77 -5.11,1.154 -8.099,1.154l-6.649 0 -0.019 3.926c-0.013,2.062 -0.543,3.64 -1.592,4.715 -1.046,1.095 -2.559,1.648 -4.542,1.648 -1.993,0 -3.423,-0.464 -4.311,-1.391 -0.897,-0.917 -1.447,-2.003 -1.658,-3.236 -0.091,-0.532 -0.131,-1.114 -0.119,-1.736zm12.294 -14.125l6.649 0c2.101,0 3.665,-0.602 4.704,-1.796 1.039,-1.193 1.382,-2.821 1.03,-4.882 -0.463,-2.713 -2.353,-4.074 -5.667,-4.074l-6.649 0 -0.067 10.752z"/>
  <path class="fil0" d="M220.275 34.516l11.354 -27.423c1.686,-4.104 4.601,-6.155 8.744,-6.155 4.103,0 6.989,2.051 8.647,6.155l11.077 27.423c0.322,0.789 0.547,1.528 0.667,2.229 0.21,1.233 0.021,2.436 -0.558,3.61 -0.578,1.174 -1.904,1.845 -3.974,2.022 -0.283,0.02 -0.567,0.03 -0.863,0.03 -1.381,0 -2.606,-0.355 -3.674,-1.066 -1.07,-0.72 -1.978,-2.051 -2.735,-3.995l-0.661 -1.676 -15.319 0 -0.67 1.676c-0.783,1.944 -1.71,3.275 -2.8,3.995 -1.082,0.711 -2.313,1.066 -3.704,1.066 -0.267,0 -0.545,-0.01 -0.844,-0.03 -2.122,-0.177 -3.5,-0.74 -4.129,-1.706 -0.627,-0.957 -0.998,-1.746 -1.099,-2.338 -0.187,-1.095 0,-2.367 0.541,-3.817zm24.472 -8.148l-4.012 -10.437 -4.087 10.437 8.099 0z"/>
  <path class="fil0" d="M169.674 35.945l0.124 -25.834c0.008,-0.937 0.068,-1.795 0.163,-2.565 0.104,-0.779 0.319,-1.598 0.666,-2.456 0.345,-0.868 0.792,-1.598 1.342,-2.19 0.562,-0.582 1.335,-1.075 2.345,-1.46 1,-0.384 2.181,-0.572 3.522,-0.572 2.023,0 3.893,0.612 5.611,1.835 1.708,1.223 3.432,3.344 5.163,6.372l9.162 16.099 0.079 -17.953c0.013,-2.062 0.554,-3.63 1.6,-4.725 1.047,-1.085 2.563,-1.628 4.545,-1.628 1.983,0 3.423,0.464 4.31,1.381 0.889,0.927 1.439,2.012 1.65,3.246 0.09,0.532 0.131,1.114 0.127,1.726l-0.096 16.049 -0.014 -0.001c-6.279,0 -11.369,5.09 -11.369,11.369 0,2.953 1.127,5.643 2.973,7.664 -1.894,-0.065 -3.655,-0.684 -5.289,-1.849 -1.719,-1.233 -3.432,-3.344 -5.139,-6.352l-9.172 -16.099 -0.081 17.943c-0.013,2.062 -0.542,3.64 -1.592,4.715 -1.046,1.095 -2.559,1.648 -4.542,1.648 -1.992,0 -3.423,-0.464 -4.311,-1.391 -0.897,-0.917 -1.447,-2.003 -1.658,-3.236 -0.091,-0.532 -0.131,-1.114 -0.119,-1.736z"/>
  <path class="fil0" d="M120.868 25.114c-0.631,-3.699 -0.545,-7.121 0.27,-10.258 0.814,-3.147 2.215,-5.801 4.204,-7.961 1.986,-2.17 4.519,-3.857 7.595,-5.08 3.077,-1.213 6.506,-1.815 10.284,-1.815 3.028,0 5.86,0.464 8.504,1.391 2.642,0.917 4.921,2.19 6.845,3.808 1.924,1.617 3.523,3.531 4.785,5.721 1.264,2.2 2.102,4.567 2.537,7.112 0.632,3.699 0.556,7.122 -0.246,10.278 -0.804,3.147 -2.196,5.801 -4.192,7.971 -1.987,2.17 -4.52,3.857 -7.588,5.07 -3.067,1.213 -6.494,1.825 -10.292,1.825 -3.038,0 -5.889,-0.464 -8.533,-1.391 -2.645,-0.927 -4.922,-2.19 -6.847,-3.818 -1.924,-1.617 -3.512,-3.521 -4.776,-5.721 -1.261,-2.19 -2.111,-4.567 -2.55,-7.132zm15.67 5.633c1.746,1.499 3.987,2.259 6.748,2.259 2.023,0 3.782,-0.385 5.286,-1.164 1.506,-0.77 2.669,-1.815 3.491,-3.127 0.81,-1.322 1.349,-2.841 1.602,-4.538 0.26,-1.706 0.227,-3.521 -0.104,-5.455 -0.467,-2.732 -1.567,-4.843 -3.309,-6.323 -1.734,-1.489 -3.982,-2.229 -6.734,-2.229 -2.022,0 -3.791,0.385 -5.297,1.154 -1.506,0.77 -2.669,1.815 -3.479,3.137 -0.819,1.322 -1.361,2.831 -1.621,4.537 -0.271,1.707 -0.239,3.512 0.086,5.416 0.469,2.742 1.579,4.853 3.331,6.333z"/>
  <path class="fil0" d="M80.379 25.775c-0.657,-3.847 -0.602,-7.388 0.151,-10.604 0.763,-3.215 2.123,-5.938 4.073,-8.148 1.949,-2.219 4.475,-3.945 7.559,-5.178 3.084,-1.233 6.58,-1.845 10.486,-1.845 4.025,0 7.576,0.523 10.644,1.559 1.414,0.483 2.569,1.065 3.474,1.746 0.907,0.69 1.48,1.331 1.703,1.943 0.231,0.602 0.361,1.016 0.396,1.223 0.145,0.848 -0.013,1.766 -0.476,2.752 -0.875,1.864 -2.362,2.802 -4.464,2.802 -1.114,0 -2.546,-0.296 -4.281,-0.868 -1.987,-0.661 -4.233,-0.987 -6.758,-0.987 -2.584,0 -4.737,0.681 -6.457,2.042 -1.722,1.351 -2.894,3.097 -3.497,5.228 -0.612,2.131 -0.699,4.449 -0.271,6.954 0.207,1.214 0.554,2.318 1.043,3.334 0.489,1.017 1.135,1.914 1.933,2.713 0.807,0.799 1.813,1.43 3.025,1.884 1.221,0.454 2.582,0.681 4.111,0.681 2.002,0 4.241,-0.405 6.727,-1.214 1.62,-0.562 2.974,-0.838 4.069,-0.838 2.081,0 3.655,0.957 4.716,2.89 0.301,0.612 0.501,1.204 0.595,1.756 0.155,0.908 -0.026,1.864 -0.543,2.88 -0.509,1.006 -1.526,1.865 -3.065,2.555 -3.149,1.431 -7.339,2.141 -12.557,2.141 -2.624,0 -5.052,-0.296 -7.303,-0.888 -2.25,-0.582 -4.205,-1.401 -5.881,-2.436 -1.668,-1.046 -3.143,-2.289 -4.407,-3.739 -1.275,-1.46 -2.296,-3.048 -3.075,-4.774 -0.768,-1.727 -1.332,-3.581 -1.67,-5.564z"/>
  <path class="fil0" d="M40.143 34.446l11.354 -27.423c1.686,-4.103 4.601,-6.155 8.744,-6.155 4.103,0 6.989,2.052 8.647,6.155l11.077 27.423c0.322,0.789 0.547,1.529 0.667,2.229 0.21,1.233 0.021,2.437 -0.558,3.61 -0.578,1.174 -1.904,1.845 -3.974,2.023 -0.283,0.019 -0.567,0.029 -0.863,0.029 -1.381,0 -2.606,-0.355 -3.674,-1.065 -1.07,-0.72 -1.978,-2.052 -2.735,-3.995l-0.661 -1.677 -15.319 0 -0.67 1.677c-0.783,1.943 -1.71,3.275 -2.8,3.995 -1.082,0.71 -2.313,1.065 -3.704,1.065 -0.267,0 -0.545,-0.01 -0.844,-0.029 -2.122,-0.178 -3.5,-0.74 -4.129,-1.707 -0.627,-0.957 -0.998,-1.746 -1.099,-2.338 -0.187,-1.095 0,-2.367 0.541,-3.817zm24.472 -8.148l-4.012 -10.436 -4.087 10.436 8.099 0z"/>
  <path class="fil0" d="M0.004 35.945l0.152 -28.724c0.013,-2.062 0.564,-3.63 1.659,-4.725 1.097,-1.085 2.672,-1.628 4.733,-1.628l14.659 0c2.229,0 4.252,0.178 6.06,0.543 1.8,0.374 3.292,0.848 4.48,1.45 1.176,0.592 2.187,1.312 3.011,2.15 0.823,0.839 1.453,1.697 1.868,2.565 0.413,0.858 0.709,1.785 0.878,2.772 0.438,2.564 0.087,4.784 -1.043,6.658 -1.139,1.874 -2.891,3.166 -5.279,3.857 4.456,1.312 7.007,3.827 7.642,7.546 0.342,2.002 0.246,3.808 -0.298,5.415 -0.544,1.608 -1.394,2.93 -2.55,3.956 -1.154,1.036 -2.545,1.904 -4.191,2.604 -1.646,0.7 -3.326,1.204 -5.053,1.49 -1.717,0.286 -3.496,0.434 -5.331,0.434l-15.082 0c-2.062,0 -3.552,-0.464 -4.491,-1.401 -0.93,-0.937 -1.501,-2.032 -1.715,-3.285 -0.088,-0.513 -0.125,-1.075 -0.109,-1.677zm21.116 -19.186c1.342,0 2.411,-0.266 3.209,-0.789 0.797,-0.532 1.089,-1.42 0.875,-2.673 -0.258,-1.509 -1.609,-2.259 -4.055,-2.259l-8.789 0 -0.029 5.721 8.789 0zm-8.879 15.408l9.223 0c0.75,0 1.412,-0.049 1.969,-0.138 0.568,-0.079 1.122,-0.246 1.663,-0.483 0.55,-0.247 0.94,-0.622 1.186,-1.145 0.236,-0.522 0.284,-1.163 0.153,-1.933 -0.148,-0.868 -0.62,-1.489 -1.414,-1.864 -0.794,-0.375 -1.97,-0.562 -3.538,-0.562l-9.214 0 -0.028 6.125z"/>
  <circle class="fil1 str0" cx="209.973" cy="34.638" r="7.492"/>
 </g>
</svg>
